<?xml version="1.0" encoding="UTF-8"?>
<svg width="100pt" height="100pt" version="1.1" viewBox="0 0 100 100" xmlns="http://www.w3.org/2000/svg">
 <path d="m80.078 31.578v-7.6992c0-1.1094-0.89844-2-2-2-1.1094 0-2 0.89062-2 2v5.9883c-0.60938-0.16016-1.2383-0.30078-1.8711-0.37891v-0.51953c0-7.1602-4.7812-12.43-13.16-14.621l0.003906-7.3359c0-1.1016-0.89844-2-2-2-1.1094 0-2 0.89844-2 2v6.5195c-4.7109-0.73047-9.5508-0.71875-14.238 0.019531l-0.003906-6.5508c0-1.1016-0.89844-2-2-2-1.1094 0-2 0.89844-2 2v7.3789c-8.3008 2.2188-13.02 7.4688-13.02 14.59v0.51172c-0.69141 0.089843-1.3516 0.23828-2.0117 0.42188v-6.0391c0-1.1016-0.89844-2-2-2-1.1094 0-2 0.89844-2 2v7.8008c-4.2305 2.6602-7.0508 7.3516-7.0508 12.711v36.988c0 7.5195 6.1211 13.641 13.629 13.641h47.281c7.5117 0 13.629-6.1211 13.629-13.641l0.003906-36.992c0-5.4102-2.8789-10.152-7.1914-12.793zm-59.066 16.621c-0.55859-2.8008-0.10156-5.5586 1.2695-7.5703 0.96875-1.4297 2.3086-2.3281 3.8594-2.6094 0.32031-0.058593 0.64844-0.089843 0.98047-0.089843 3.5508 0 6.7812 3.2617 7.6719 7.75 0.55859 2.8008 0.10156 5.5586-1.2695 7.5703-0.96875 1.4297-2.3086 2.3398-3.8516 2.6211-0.32812 0.058594-0.66016 0.089844-0.98828 0.089844-3.5547 0-6.7734-3.2617-7.6719-7.7617zm18.547-26.277c3.8711-0.32031 7.3516 3.6914 7.7695 8.8594 0.42969 5.1992-2.3594 9.6914-6.2188 10.012-0.14062 0.011719-0.28906 0.019531-0.44141 0.019531-3.6992 0-6.9219-3.8984-7.3281-8.8789-0.41797-5.2031 2.3711-9.6953 6.2188-10.012zm10.562 23.059h0.16016c0.070312 0 0.14844 0.011719 0.21875 0.019531 4.3789 0.26953 6.2812 3.8086 7.3281 6.4609 0.83984 2.1289 2.2695 4.5391 3.5781 5.1016 4.0703 1.7812 6.5117 6.0586 5.9414 10.43-0.51953 3.9805-3.4219 6.8281-7.5508 7.4492-0.48047 0.070313-0.96875 0.10938-1.4609 0.10938-1.3398 0-2.6992-0.28125-3.9414-0.80078-0.55078-0.23047-1.0586-0.5-1.5508-0.76953-0.91016-0.48047-1.7695-0.94141-2.7188-1.0391-0.96094 0.10156-1.8203 0.55859-2.7188 1.0391-0.48828 0.26953-1 0.53906-1.5508 0.76953-1.6992 0.71094-3.6211 0.96094-5.3984 0.69141-4.1406-0.62109-7.0312-3.4688-7.5586-7.4492-0.57031-4.3711 1.8711-8.6484 5.9414-10.43 1.3086-0.55859 2.7383-2.9688 3.5898-5.1016 1.0391-2.6484 2.9414-6.1914 7.3281-6.4609 0.070313-0.011719 0.14063-0.019531 0.21875-0.019531h0.14453zm2.5508-14.199c0.42188-5.1719 3.8906-9.1914 7.7695-8.8594 3.8516 0.32031 6.6406 4.8086 6.2188 10.012-0.41016 4.9805-3.6289 8.8789-7.3281 8.8789-0.14844 0-0.30078-0.011719-0.44141-0.019531-3.8594-0.32422-6.6523-4.8125-6.2188-10.012zm17.656 25.09c-1.5391-0.28125-2.8789-1.1914-3.8516-2.6211-1.3711-2.0117-1.8281-4.7695-1.2695-7.5703 0.89062-4.4883 4.1211-7.75 7.6719-7.75 0.32812 0 0.66016 0.03125 0.98047 0.089843 1.5508 0.28125 2.8906 1.1797 3.8594 2.6094 1.3711 2.0117 1.8281 4.7695 1.2695 7.5703-0.44922 2.25-1.4805 4.1914-2.8398 5.5703-1.3594 1.3711-3.0508 2.1914-4.8281 2.1914-0.33203 0-0.66016-0.03125-0.99219-0.089844z"/>
</svg>
